<svg width="16" height="16" viewBox="0 0 16 16" fill="none" xmlns="http://www.w3.org/2000/svg">
<g clip-path="url(#clip0_1397_124)">
<path d="M8 16C12.4183 16 16 12.4183 16 8C16 3.58172 12.4183 0 8 0C3.58172 0 0 3.58172 0 8C0 12.4183 3.58172 16 8 16Z" fill="#0052B4"/>
<path d="M7.99993 3.13086L8.25896 3.92802H9.09708L8.41899 4.42067L8.67802 5.21783L7.99993 4.72514L7.3218 5.21783L7.58083 4.42067L6.90274 3.92802H7.7409L7.99993 3.13086Z" fill="#FFDA44"/>
<path d="M4.55658 4.55685L5.30345 4.93735L5.89611 4.34473L5.76495 5.17254L6.5118 5.55307L5.68395 5.6842L5.55283 6.51207L5.1723 5.76523L4.34448 5.89638L4.93714 5.30373L4.55658 4.55685Z" fill="#FFDA44"/>
<path d="M3.13037 8.00039L3.92753 7.74135V6.9032L4.42015 7.58132L5.21734 7.32229L4.72462 8.00039L5.21734 8.67848L4.42015 8.41948L3.92753 9.09757V8.25942L3.13037 8.00039Z" fill="#FFDA44"/>
<path d="M4.55658 11.4435L4.93711 10.6966L4.34448 10.1039L5.17233 10.2351L5.55279 9.48828L5.68395 10.3161L6.51176 10.4473L5.76501 10.8278L5.89611 11.6556L5.30345 11.0629L4.55658 11.4435Z" fill="#FFDA44"/>
<path d="M7.99993 12.87L7.74087 12.0728H6.90274L7.58087 11.5802L7.3218 10.7831L7.99993 11.2757L8.67802 10.7831L8.41899 11.5802L9.09708 12.0728H8.25893L7.99993 12.87Z" fill="#FFDA44"/>
<path d="M11.4432 11.4435L10.6963 11.063L10.1037 11.6556L10.2348 10.8278L9.48804 10.4473L10.3158 10.3161L10.447 9.48828L10.8275 10.2351L11.6553 10.1039L11.0626 10.6967L11.4432 11.4435Z" fill="#FFDA44"/>
<path d="M12.8695 8.00039L12.0723 8.25942V9.09757L11.5797 8.41945L10.7826 8.67848L11.2752 8.00039L10.7826 7.32229L11.5797 7.58132L12.0723 6.9032V7.74139L12.8695 8.00039Z" fill="#FFDA44"/>
<path d="M11.4432 4.55682L11.0627 5.3037L11.6553 5.89635L10.8274 5.76516L10.447 6.51201L10.3158 5.68416L9.48804 5.55301L10.2348 5.17251L10.1037 4.34473L10.6964 4.93735L11.4432 4.55682Z" fill="#FFDA44"/>
</g>
<defs>
<clipPath id="clip0_1397_124">
<rect width="16" height="16" fill="white"/>
</clipPath>
</defs>
</svg>
